<svg viewBox="0 0 16 16" fill="none" xmlns="http://www.w3.org/2000/svg">
  <path opacity="0.4" d="M8 16C3.58887 16 0 12.4111 0 8C0 3.58887 3.58887 0 8 0C12.4111 0 16 3.58887 16 8C16 12.4111 12.4111 16 8 16ZM8 2C4.69141 2 2 4.69141 2 8C2 11.3086 4.69141 14 8 14C11.3086 14 14 11.3086 14 8C14 4.69141 11.3086 2 8 2Z" fill="currentColor"/>
  <path d="M15.9934 8.00665H13.9934C13.9934 4.69806 11.302 2.00665 7.99341 2.00665V0.00665283C12.4045 0.00665283 15.9934 3.59552 15.9934 8.00665Z" fill="currentColor"/>
</svg>